#!OML:ASF F:\VICON\USERDATA\INSTALL\rory3\rory3.ASF
:FULLY-SPECIFIED
:DEGREES
842
root 4.9504 16.5746 1.90051 6.45193 -15.3666 -7.12725
lowerback 20.67 -0.514804 4.71633
upperback 4.52865 0.378144 1.35911
thorax -6.59998 0.091795 -1.31587
lowerneck -13.4884 -0.482165 -2.75681
upperneck 36.5885 0.206805 -0.843276
head 14.9832 -0.484085 0.151573
rclavicle -1.88845e-014 -1.86858e-014
rhumerus -35.5861 0.35051 -8.69517
rradius 28.7632
rwrist 10.3365
rhand -22.9079 -51.3289
rfingers 7.12502
rthumb 3.53206 -81.2793
lclavicle -1.88845e-014 -1.86858e-014
lhumerus -33.119 -1.7603 2.34058
lradius 23.4139
lwrist 11.2004
lhand -24.2231 -33.0667
lfingers 7.12502
lthumb 2.26194 -3.09892
rfemur -101.868 1.90358 28.4934
rtibia 97.8999
rfoot 49.6927 2.31231
rtoes 1.35417
lfemur -31.4904 2.49746 -22.9029
ltibia 49.4127
lfoot -20.9134 11.877
ltoes 15.4488
843
root 4.95101 16.572 1.89553 6.46801 -15.3363 -7.04956
lowerback 20.6953 -0.543936 4.66936
upperback 4.48853 0.334212 1.36173
thorax -6.65996 0.0698227 -1.27498
lowerneck -13.4791 -0.480582 -2.813
upperneck 36.6267 0.223799 -0.840396
head 14.9996 -0.485174 0.165257
rclavicle -7.42461e-014 1.19271e-014
rhumerus -35.4571 0.433896 -8.71787
rradius 28.8621
rwrist 10.3255
rhand -22.9249 -51.3051
rfingers 7.12502
rthumb 3.51565 -81.2559
lclavicle -7.42461e-014 1.19271e-014
lhumerus -33.2172 -1.83476 2.39167
lradius 23.3579
lwrist 11.4899
lhand -24.5993 -33.3606
lfingers 7.12502
lthumb 1.89855 -3.38931
rfemur -101.938 1.83406 28.4286
rtibia 97.8977
rfoot 49.613 2.65517
rtoes 0.945669
lfemur -31.5573 2.4329 -22.981
ltibia 49.4123
lfoot -20.905 11.8585
ltoes 15.2639
844
root 4.9512 16.5693 1.89512 6.44323 -15.3638 -6.93889
lowerback 20.6973 -0.543957 4.57385
upperback 4.50219 0.31106 1.33032
thorax -6.64808 0.0604547 -1.24871
lowerneck -13.4818 -0.47223 -2.7874
upperneck 36.6687 0.247513 -0.892502
head 15.0205 -0.479667 0.142488
rclavicle 5.25785e-014 -2.00773e-014
rhumerus -35.3078 0.499452 -8.76985
rradius 28.8394
rwrist 10.4016
rhand -23.2513 -51.162
rfingers 7.12502
rthumb 3.20043 -81.1178
lclavicle 5.25785e-014 -2.00773e-014
lhumerus -33.1837 -1.51506 2.2196
lradius 23.3351
lwrist 11.1526
lhand -24.4433 -33.2197
lfingers 7.12502
lthumb 2.04924 -3.24981
rfemur -101.971 1.80281 28.3096
rtibia 97.9407
rfoot 49.5794 2.89113
rtoes 0.407959
lfemur -31.5403 2.41987 -23.1013
ltibia 49.397
lfoot -20.9029 11.8759
ltoes 15.077
845
root 4.9516 16.5725 1.89959 6.34671 -15.4948 -6.95733
lowerback 20.7344 -0.505009 4.60242
upperback 4.55167 0.36547 1.30941
thorax -6.61035 0.0871231 -1.30169
lowerneck -13.5178 -0.480607 -2.7823
upperneck 36.7641 0.224644 -0.864016
head 15.0751 -0.486436 0.149136
rclavicle -8.3589e-014 -7.55382e-015
rhumerus -35.264 0.69784 -8.85996
rradius 28.8041
rwrist 10.3646
rhand -23.7618 -50.8631
rfingers 7.12502
rthumb 2.7074 -80.8256
lclavicle -8.3589e-014 -7.55382e-015
lhumerus -33.0656 -1.22354 2.0429
lradius 23.3706
lwrist 10.7052
lhand -24.1926 -32.8523
lfingers 7.12502
lthumb 2.29138 -2.88485
rfemur -101.815 1.89132 28.2986
rtibia 97.9619
rfoot 49.5199 2.75383
rtoes 0.18585
lfemur -31.3573 2.51971 -23.0849
ltibia 49.3296
lfoot -20.9131 11.9364
ltoes 14.9116
846
root 4.94961 16.5713 1.8938 6.42571 -15.4246 -6.92256
lowerback 20.668 -0.513643 4.58809
upperback 4.50862 0.349542 1.3066
thorax -6.62324 0.0792169 -1.29234
lowerneck -13.5358 -0.475639 -2.67111
upperneck 36.8367 0.238624 -0.968832
head 15.1146 -0.480572 0.0872296
rclavicle -2.0773e-014 1.11319e-014
rhumerus -35.2934 0.931656 -8.9757
rradius 28.7656
rwrist 9.84417
rhand -24.1234 -50.6959
rfingers 7.12502
rthumb 2.3582 -80.6626
lclavicle -2.0773e-014 1.11319e-014
lhumerus -33.0056 -1.05406 1.93367
lradius 23.3882
lwrist 10.3528
lhand -24.2448 -32.9638
lfingers 7.12502
lthumb 2.2409 -2.99584
rfemur -101.957 1.82105 28.2633
rtibia 97.9717
rfoot 49.4671 2.56887
rtoes 0.27909
lfemur -31.449 2.4822 -23.1124
ltibia 49.2681
lfoot -20.8554 11.8926
ltoes 14.9137
847
root 4.95089 16.575 1.89211 6.45777 -15.4873 -6.80289
lowerback 20.5999 -0.490305 4.48572
upperback 4.4851 0.353712 1.28233
thorax -6.61351 0.0828505 -1.26135
lowerneck -13.4839 -0.442557 -2.56282
upperneck 36.8263 0.314658 -1.13476
head 15.0974 -0.455892 0.0110048
rclavicle -2.75317e-014 2.46493e-014
rhumerus -35.2833 0.994411 -9.03059
rradius 28.8163
rwrist 9.24451
rhand -24.5092 -51.0301
rfingers 7.12502
rthumb 1.98562 -81.0006
lclavicle -2.75317e-014 2.46493e-014
lhumerus -33.0838 -0.945945 1.88128
lradius 23.426
lwrist 10.3045
lhand -24.122 -33.2594
lfingers 7.12502
lthumb 2.35953 -3.29271
rfemur -102.029 1.78202 28.1562
rtibia 97.9362
rfoot 49.4799 2.39242
rtoes 0.568607
lfemur -31.4657 2.51788 -23.2599
ltibia 49.1913
lfoot -20.869 11.8817
ltoes 15.1093
848
root 4.95143 16.579 1.8882 6.45381 -15.5026 -6.70414
lowerback 20.6125 -0.486875 4.39396
upperback 4.47656 0.338793 1.26591
thorax -6.63105 0.0766735 -1.2231
lowerneck -13.4544 -0.414912 -2.51608
upperneck 36.7895 0.370602 -1.21633
head 15.0726 -0.436307 -0.0220003
rclavicle -5.76476e-015 7.55382e-015
rhumerus -35.1026 0.308778 -8.78329
rradius 28.5512
rwrist 9.67373
rhand -24.4809 -51.0937
rfingers 7.12502
rthumb 2.01294 -81.0639
lclavicle -5.76476e-015 7.55382e-015
lhumerus -33.095 -0.920162 1.87205
lradius 23.4232
lwrist 10.4727
lhand -23.8702 -33.3741
lfingers 7.12502
lthumb 2.60272 -3.4102
rfemur -102.049 1.71523 28.0798
rtibia 97.9078
rfoot 49.5196 2.46301
rtoes 0.540105
lfemur -31.4667 2.54029 -23.3705
ltibia 49.1442
lfoot -20.8784 11.8548
ltoes 15.1442
849
root 4.95109 16.5801 1.88482 6.4463 -15.4825 -6.6997
lowerback 20.679 -0.498544 4.41002
upperback 4.44795 0.331685 1.26014
thorax -6.69747 0.0713826 -1.23665
lowerneck -13.3995 -0.395219 -2.43255
upperneck 36.7699 0.407758 -1.31141
head 15.0504 -0.421572 -0.0703219
rclavicle -2.64384e-014 2.38542e-015
rhumerus -34.8235 -0.877529 -8.30019
rradius 27.8202
rwrist 10.9103
rhand -24.3495 -50.2544
rfingers 7.12502
rthumb 2.13986 -80.2234
lclavicle -2.64384e-014 2.38542e-015
lhumerus -33.0223 -1.08616 1.88722
lradius 23.4375
lwrist 10.726
lhand -23.5619 -32.8661
lfingers 7.12502
lthumb 2.90048 -2.90605
rfemur -102.043 1.67046 28.0989
rtibia 97.9047
rfoot 49.4146 2.88161
rtoes -0.151537
lfemur -31.4591 2.56912 -23.3714
ltibia 49.121
lfoot -20.8387 11.8167
ltoes 15.1043
850
root 4.94992 16.5799 1.88505 6.45051 -15.5224 -6.75364
lowerback 20.7535 -0.485436 4.46082
upperback 4.37905 0.368847 1.28575
thorax -6.80958 0.0856459 -1.24745
lowerneck -13.2302 -0.355843 -2.37365
upperneck 36.725 0.486274 -1.43184
head 14.9894 -0.395415 -0.117564
rclavicle 1.98785e-016 -5.96354e-016
rhumerus -34.7243 -1.12566 -8.09257
rradius 27.5547
rwrist 11.3795
rhand -24.0371 -49.7307
rfingers 7.12502
rthumb 2.4415 -79.6964
lclavicle 1.98785e-016 -5.96354e-016
lhumerus -33.0588 -1.17957 1.85441
lradius 23.5581
lwrist 10.6562
lhand -23.2866 -31.5843
lfingers 7.12502
lthumb 3.16633 -1.62808
rfemur -102.018 1.7147 28.1529
rtibia 97.8921
rfoot 49.3935 3.15502
rtoes -0.704418
lfemur -31.4412 2.65364 -23.3128
ltibia 49.1148
lfoot -20.8104 11.7934
ltoes 15.1466
851
root 4.94771 16.5795 1.88468 6.45672 -15.4894 -6.73164
lowerback 20.7965 -0.468523 4.45464
upperback 4.3113 0.397897 1.31755
thorax -6.90499 0.0975065 -1.2171
lowerneck -13.084 -0.358829 -2.44809
upperneck 36.6795 0.485353 -1.39746
head 14.9333 -0.399815 -0.0892437
rclavicle -8.68689e-014 2.40529e-014
rhumerus -34.7586 -0.866874 -8.03736
rradius 27.612
rwrist 11.5282
rhand -23.1546 -49.8388
rfingers 7.12502
rthumb 3.29376 -79.7931
lclavicle -8.68689e-014 2.40529e-014
lhumerus -33.0052 -0.835432 1.71287
lradius 23.7442
lwrist 10.2001
lhand -22.86 -29.3624
lfingers 7.12502
lthumb 3.57826 0.587265
rfemur -102.044 1.68452 28.1227
rtibia 97.8844
rfoot 49.492 3.22984
rtoes -0.583349
lfemur -31.4554 2.62017 -23.3222
ltibia 49.1008
lfoot -20.7743 11.7747
ltoes 15.187
852
root 4.94637 16.5789 1.8854 6.40986 -15.4099 -6.65522
lowerback 20.8353 -0.470792 4.42308
upperback 4.24969 0.395368 1.33849
thorax -6.99337 0.0948789 -1.17582
lowerneck -12.9516 -0.414873 -2.5894
upperneck 36.6995 0.388225 -1.26372
head 14.912 -0.442027 -0.0237961
rclavicle 3.83654e-014 1.17283e-014
rhumerus -34.6931 -1.09551 -7.79083
rradius 27.3962
rwrist 12.1796
rhand -22.654 -49.8157
rfingers 7.12502
rthumb 3.77718 -79.762
lclavicle 3.83654e-014 1.17283e-014
lhumerus -32.9062 -0.657817 1.64025
lradius 24.1615
lwrist 10.3299
lhand -22.034 -26.082
lfingers 7.12502
lthumb 4.37597 3.85279
rfemur -102.058 1.5599 28.0643
rtibia 97.9154
rfoot 49.5153 3.38229
rtoes -0.578592
lfemur -31.4086 2.51932 -23.3943
ltibia 49.0665
lfoot -20.7436 11.8167
ltoes 15.0303
853
root 4.94668 16.5809 1.88773 6.31913 -15.4363 -6.64251
lowerback 20.8575 -0.467772 4.42285
upperback 4.2231 0.403395 1.35893
thorax -7.03392 0.0978377 -1.15566
lowerneck -12.8434 -0.429743 -2.57026
upperneck 36.7487 0.373218 -1.31338
head 14.9108 -0.453216 -0.0505189
rclavicle -1.94809e-014 -1.13307e-014
rhumerus -34.6112 -1.33661 -7.5901
rradius 27.2858
rwrist 12.7431
rhand -22.4827 -49.7286
rfingers 7.12502
rthumb 3.94262 -79.6719
lclavicle -1.94809e-014 -1.13307e-014
lhumerus -33.095 -1.19062 1.82426
lradius 23.6751
lwrist 9.75506
lhand -23.6289 -31.8646
lfingers 7.12502
lthumb 2.83577 -1.90367
rfemur -101.936 1.50791 28.0628
rtibia 97.9213
rfoot 49.5022 3.34325
rtoes -0.349649
lfemur -31.2717 2.50858 -23.4138
ltibia 49.0505
lfoot -20.7762 11.8902
ltoes 14.9121
854
root 4.94638 16.582 1.8878 6.32614 -15.4872 -6.61325
lowerback 20.7175 -0.458571 4.41277
upperback 4.29931 0.399095 1.32857
thorax -6.87682 0.0995435 -1.18159
lowerneck -13.1218 -0.421891 -2.42957
upperneck 36.8644 0.388129 -1.39906
head 15.0318 -0.441689 -0.110741
rclavicle -1.27222e-014 -6.16232e-015
rhumerus -34.6314 -1.25809 -7.70909
rradius 27.5082
rwrist 12.8023
rhand -22.2712 -49.7709
rfingers 7.12502
rthumb 4.14686 -79.7103
lclavicle -1.27222e-014 -6.16232e-015
lhumerus -33.0152 -1.13175 1.82342
lradius 24.1117
lwrist 10.4815
lhand -23.1989 -29.0057
lfingers 7.12502
lthumb 3.25102 0.949223
rfemur -101.914 1.51126 28.029
rtibia 97.9083
rfoot 49.4622 3.15437
rtoes 0.116802
lfemur -31.2814 2.47695 -23.4475
ltibia 49.0792
lfoot -20.8132 11.9364
ltoes 15.1759
